<svg xmlns="http://www.w3.org/2000/svg" xmlns:xlink="http://www.w3.org/1999/xlink" id="Layer_1" x="0" y="0" version="1.1" viewBox="0 0 550 550" xml:space="preserve" style="enable-background:new 0 0 550 550"><style type="text/css">.st0{fill:#fff}.st1{fill:#5fc08d}</style><g><path d="M371.64,368.44l25.78,43.83c4.25,7.23,11.9,11.79,20.28,12.08l10.91,0.38c8.38,0.29,16.03,4.84,20.28,12.08 l0,0c5.19,8.83,4.36,19.95-2.08,27.91l0,0c-13.69,16.92-32.75,28.64-54.01,33.24l-2.69,0.58c-10.34,2.23-20.94-2.42-26.3-11.54 l-1.79-3.04c-5-8.5-4.43-19.18,1.45-27.1l3.27-4.41c5.88-7.92,6.45-18.59,1.45-27.1l-23.97-40.75L371.64,368.44z" class="st0"/><g><path d="M384.9,506.8c-11.24,0-21.86-5.9-27.74-15.9l-1.79-3.05c-6.59-11.2-5.84-25.17,1.9-35.6l3.27-4.41 c4.04-5.45,4.43-12.74,0.99-18.59l-23.97-40.75l13.3-7.82l23.97,40.75c6.59,11.2,5.84,25.17-1.9,35.6l-3.27,4.41 c-4.04,5.45-4.43,12.74-0.99,18.59l1.79,3.05c3.68,6.27,10.93,9.44,18.02,7.91l2.69-0.58c19.47-4.21,37.1-15.06,49.64-30.55 c4.4-5.43,4.97-13.12,1.43-19.15c-2.93-4.99-8.13-8.08-13.9-8.28l-10.91-0.38c-11.07-0.38-21.04-6.32-26.66-15.88l-25.78-43.83 l13.3-7.82l25.78,43.83c2.93,4.99,8.13,8.08,13.9,8.28l10.91,0.38c11.08,0.38,21.04,6.32,26.66,15.88 c6.78,11.53,5.69,26.27-2.73,36.67c-14.74,18.22-35.47,30.97-58.37,35.92l-2.69,0.58C389.46,506.56,387.17,506.8,384.9,506.8z" class="st1"/></g><g><path d="M384.48,484.4l-7.17-2.85c17.78-44.63,59.48-33.89,59.9-33.78l-2.01,7.45 C433.76,454.83,399.67,446.26,384.48,484.4z" class="st1"/></g></g><ellipse cx="283.92" cy="264.69" class="st0" rx="152.82" ry="152.99"/><g><path d="M284.19,425.46c-13.5,0-27.08-1.72-40.49-5.19c-85.69-22.2-137.37-110.05-115.19-195.83 c10.74-41.56,37.01-76.44,73.95-98.22c36.95-21.78,80.16-27.86,121.68-17.1c85.69,22.2,137.37,110.05,115.19,195.83l0,0 c-10.74,41.55-37.01,76.44-73.95,98.22C340.36,417.91,312.47,425.46,284.19,425.46z M283.67,119.36 c-25.56,0-50.76,6.82-73.37,20.15c-33.4,19.69-57.14,51.22-66.85,88.79c-20.05,77.55,26.66,156.97,104.12,177.04 c37.52,9.72,76.58,4.23,109.97-15.46c33.4-19.69,57.14-51.22,66.85-88.79l0,0c20.05-77.55-26.66-156.97-104.12-177.04 C308.15,120.91,295.87,119.36,283.67,119.36z" class="st1"/></g><path d="M379.2,182.67l45.5-26.82c7.51-4.43,12.24-12.39,12.54-21.1l0.39-11.36c0.3-8.72,5.03-16.68,12.54-21.1v0	c9.16-5.4,20.71-4.54,28.98,2.16l0,0c17.56,14.25,29.74,34.08,34.51,56.2l0.6,2.8c2.32,10.76-2.51,21.79-11.98,27.37l-3.16,1.86	c-8.83,5.2-19.91,4.61-28.13-1.51l-4.57-3.4c-8.22-6.12-19.3-6.71-28.13-1.51l-42.31,24.94L379.2,182.67z" class="st0"/><path d="M521.8,161.82c3.03,14.03-3.24,28.35-15.6,35.64l-3.16,1.86c-11.53,6.8-25.91,6.02-36.65-1.96l-4.57-3.4	c-5.74-4.27-13.44-4.69-19.61-1.05l-42.31,24.94l-7.83-13.29l42.31-24.94c11.53-6.79,25.91-6.02,36.65,1.96l4.57,3.4	c5.75,4.27,13.44,4.69,19.61,1.05l3.16-1.86c6.62-3.9,9.98-11.58,8.36-19.1l-0.6-2.8c-4.39-20.33-15.69-38.74-31.83-51.83	c-5.73-4.65-13.85-5.25-20.2-1.51c-5.27,3.1-8.54,8.61-8.75,14.72l-0.39,11.36c-0.39,11.41-6.5,21.69-16.33,27.48l-45.5,26.82	l-7.83-13.29l45.5-26.82c5.27-3.1,8.53-8.61,8.75-14.72l0.39-11.36c0.39-11.41,6.5-21.69,16.33-27.48c11.88-7,27.05-5.86,37.75,2.82	c18.86,15.3,32.07,36.81,37.19,60.56" class="st1"/><g><path d="M496.69,176.62c-46.21-18.45-35.1-61.71-34.98-62.14l7.45,2.02l-3.72-1.01l3.73,1 c-0.4,1.51-9.34,37.11,30.39,52.97L496.69,176.62z" class="st1"/></g><g><path d="M265.67,272.08c-4.32,0-8.69-0.55-13.01-1.67c-25.56-6.62-41.39-31.2-35.29-54.8 c2.99-11.57,10.71-21.13,21.73-26.93c10.77-5.66,23.45-7.04,35.7-3.86c25.56,6.62,41.39,31.2,35.29,54.8l0,0 c-2.99,11.57-10.71,21.13-21.73,26.93C281.39,270.21,273.61,272.08,265.67,272.08z M261.79,198.57c-5.46,0-10.77,1.27-15.51,3.76 c-7.12,3.74-12.08,9.83-13.97,17.13c-3.97,15.37,6.9,31.52,24.23,36.01c8.53,2.21,17.28,1.29,24.65-2.58 c7.12-3.75,12.08-9.83,13.97-17.13c3.97-15.37-6.9-31.52-24.23-36.01C267.88,198.96,264.81,198.57,261.79,198.57z" class="st1"/></g><g><path d="M321.47,353.5c-2.7,0-5.43-0.35-8.12-1.04c-16.43-4.26-26.5-20.45-22.45-36.09c1.98-7.67,7-14.04,14.14-17.93 c6.96-3.8,15.13-4.77,23-2.73c16.43,4.26,26.5,20.45,22.45,36.09v0c-1.98,7.67-7,14.04-14.14,17.93 C331.77,352.22,326.67,353.5,321.47,353.5z M319.92,310.09c-2.64,0-5.21,0.64-7.5,1.89c-3.34,1.82-5.68,4.75-6.59,8.25 c-1.92,7.41,3.19,15.17,11.39,17.3c4.06,1.05,8.23,0.57,11.74-1.34c3.34-1.82,5.68-4.75,6.59-8.25c1.91-7.41-3.19-15.17-11.39-17.3 C322.75,310.27,321.32,310.09,319.92,310.09z" class="st1"/></g><g><path d="M224.49,348.68c-2.46,0-4.95-0.31-7.4-0.95c-15-3.89-24.2-18.69-20.5-33c1.82-7.03,6.41-12.86,12.94-16.42 c6.36-3.47,13.81-4.36,20.99-2.49c15,3.88,24.2,18.69,20.5,33c-1.82,7.03-6.41,12.86-12.94,16.42 C233.89,347.51,229.23,348.68,224.49,348.68z M223.12,310.29c-2.18,0-4.31,0.53-6.2,1.56c-2.74,1.49-4.65,3.88-5.39,6.73 c-1.57,6.08,2.66,12.45,9.43,14.21c3.37,0.87,6.82,0.48,9.73-1.1c2.74-1.49,4.65-3.89,5.39-6.73v0c1.57-6.08-2.66-12.45-9.43-14.2 C225.47,310.44,224.28,310.29,223.12,310.29z" class="st1"/></g><g><path d="M333.62,447.02l-1.4-0.24l-165.94-27.92l-15.9-171.31l-14.93-88.87l1.46-0.79l122.94-66.46l108.39,137.68 l105.88,27.43L333.62,447.02z M170.55,414.89l161.03,27.09l134.74-182.67l-100.76-26.11l-0.48-0.61L258.61,97.36l-118.05,63.82 l14.42,85.86L170.55,414.89z" class="st1"/></g><g><path d="M197.38,182.15l-25.44-43.25c-4.2-7.14-11.75-11.63-20.02-11.92l-10.77-0.37 c-8.27-0.29-15.82-4.78-20.02-11.92l0,0c-5.12-8.71-4.31-19.69,2.05-27.54l0,0c13.51-16.7,32.32-28.27,53.3-32.81l2.65-0.57 c10.2-2.21,20.66,2.38,25.96,11.39l1.77,3c4.94,8.39,4.37,18.93-1.43,26.74l-3.23,4.35c-5.8,7.82-6.37,18.35-1.43,26.74 l23.65,40.21L197.38,182.15z" class="st0"/><g><path d="M190.73,186.06l-25.44-43.25c-2.88-4.89-7.97-7.92-13.63-8.12l-10.77-0.37c-10.96-0.38-20.83-6.26-26.4-15.72 c-6.72-11.42-5.63-26.01,2.7-36.31c14.57-18,35.05-30.6,57.67-35.49l2.65-0.57c13.49-2.91,27.24,3.12,34.24,15.02l1.77,3 c6.52,11.09,5.78,24.92-1.88,35.25l-3.23,4.35c-3.97,5.34-4.35,12.5-0.97,18.23l23.65,40.21l-13.3,7.82l-23.65-40.21 c-6.52-11.09-5.78-24.92,1.88-35.25l3.23-4.35c3.97-5.34,4.35-12.5,0.97-18.23l-1.77-3c-3.61-6.15-10.72-9.27-17.68-7.76 l-2.65,0.57c-19.19,4.15-36.57,14.85-48.94,30.12c-4.31,5.33-4.87,12.87-1.4,18.78c2.88,4.89,7.97,7.93,13.63,8.12l10.77,0.37 c10.96,0.38,20.83,6.26,26.4,15.72l25.44,43.25L190.73,186.06z" class="st1"/></g><g><path d="M143.9,105.1c-6.62,0-11.12-1.16-11.26-1.2l2.01-7.45c1.42,0.38,35.03,8.82,50-28.77l7.17,2.85 C180.01,100.19,157.49,105.1,143.9,105.1z" class="st1"/></g></g><g><path d="M146.83,257.41l-49.96-8.61c-6.88-1.25-13.93,1.1-18.68,6.24L72,261.72c-4.75,5.14-11.8,7.49-18.68,6.24h0 c-8.4-1.53-14.96-8.12-16.47-16.53l0,0c-3.2-17.88-0.21-36.32,8.48-52.27l1.1-2.02c4.23-7.75,12.94-11.92,21.62-10.34l2.9,0.53 c8.09,1.48,14.51,7.66,16.3,15.69l1,4.47c1.79,8.04,8.21,14.22,16.3,15.69l42.28,8.18L146.83,257.41z" class="st0"/><g><path d="M57.05,276.01c-1.69,0-3.4-0.15-5.11-0.46c-11.5-2.1-20.62-11.24-22.68-22.76 c-3.5-19.54-0.19-39.9,9.31-57.32l1.1-2.02c5.83-10.69,17.8-16.42,29.78-14.23l2.9,0.53c11.16,2.04,19.98,10.52,22.45,21.6 l0.99,4.47c1.12,5.02,5.11,8.86,10.16,9.78l38.77,7.07l-2.77,15.18l-38.77-7.07c-11.17-2.04-19.98-10.52-22.45-21.6l-0.99-4.47 c-1.12-5.02-5.11-8.86-10.16-9.78l-2.9-0.53c-5.42-0.99-10.83,1.6-13.46,6.44l-1.1,2.02c-7.82,14.35-10.55,31.12-7.66,47.22 c0.93,5.22,5.06,9.36,10.26,10.31c4.3,0.78,8.66-0.67,11.63-3.89l6.19-6.69c6.58-7.11,16.2-10.32,25.72-8.59l41.7,7.6l-2.77,15.18 l-41.7-7.6c-4.3-0.78-8.66,0.67-11.63,3.89l-6.19,6.69C72.26,272.8,64.81,276.01,57.05,276.01z" class="st1"/></g><g><path d="M53.13,255.12l-4.33-6.38c1.01-0.69,24.55-17.29,9.05-47.17l6.85-3.55 C79.67,226.88,63.68,247.99,53.13,255.12z" class="st1"/></g></g><g><path d="M276.5,394.56l-16.51,63.88c-2.29,8.86,0.1,18.28,6.34,24.97l8.13,8.72c6.24,6.69,8.63,16.11,6.34,24.97l0,0 c-2.8,10.82-12.01,18.76-23.11,19.92h0c-23.59,2.47-47.33-3.19-67.26-16.06l-2.52-1.63c-9.69-6.26-14.29-18.03-11.4-29.21 l0.96-3.73c2.69-10.42,11.36-18.21,21.99-19.78l5.92-0.87c10.64-1.57,19.3-9.36,21.99-19.78l12.91-49.93L276.5,394.56z" class="st0"/><g><path d="M246.94,545.31c-21.42,0-42.61-6.18-60.7-17.86l-2.52-1.63c-12.51-8.08-18.41-23.2-14.68-37.62l0.96-3.73 c3.48-13.45,14.6-23.46,28.34-25.48l5.91-0.87c7.59-1.12,13.73-6.65,15.65-14.08l12.91-49.93l14.94,3.86l-12.91,49.93 c-3.48,13.45-14.6,23.46-28.34,25.48l-5.91,0.87c-7.59,1.12-13.73,6.65-15.65,14.08l-0.96,3.73c-2.06,7.98,1.2,16.34,8.11,20.8 l2.52,1.63c18.39,11.87,40.51,17.16,62.28,14.87c7.86-0.82,14.46-6.52,16.44-14.18c1.64-6.34-0.05-12.99-4.51-17.79l-8.13-8.72 c-8.08-8.66-11.13-20.69-8.16-32.16l13.88-53.71l14.94,3.86l-13.88,53.71c-1.64,6.35,0.05,12.99,4.51,17.78l8.13,8.72 c8.08,8.67,11.13,20.69,8.16,32.16c-3.58,13.86-15.55,24.17-29.77,25.66C254.64,545.11,250.78,545.31,246.94,545.31z" class="st1"/></g><g><path d="M256.34,520.58c-0.82-1.42-20.65-34.62-62.05-16.81l-3.05-7.09c47.82-20.58,71.55,19.64,71.79,20.05 L256.34,520.58z" class="st1"/></g></g><g><path d="M396.83,283.84l44.87,11.63c7.4,1.92,15.28-0.08,20.87-5.31l7.28-6.81c5.59-5.22,13.46-7.23,20.87-5.31l0,0 c9.04,2.34,15.67,10.05,16.64,19.35v0c2.07,19.76-2.67,39.63-13.42,56.33l-1.36,2.11c-5.23,8.12-15.07,11.96-24.41,9.54l-3.12-0.81 c-8.71-2.26-15.22-9.51-16.53-18.42l-0.73-4.95c-1.31-8.91-7.82-16.16-16.53-18.42l-41.72-10.81L396.83,283.84z" class="st0"/><g><path d="M473.81,373.81c-2.51,0-5.05-0.31-7.57-0.97l-3.12-0.81c-11.73-3.04-20.46-12.76-22.22-24.76l-0.73-4.96 c-0.86-5.85-5.11-10.59-10.83-12.07l-41.72-10.81l3.87-14.93l41.72,10.81c11.73,3.04,20.46,12.76,22.22,24.76l0.73,4.96 c0.86,5.85,5.11,10.59,10.83,12.07l3.12,0.81c6.13,1.59,12.55-0.93,15.99-6.26l1.36-2.11c9.77-15.17,14.11-33.4,12.23-51.35 c-0.63-6.06-5.02-11.16-10.91-12.69c-4.87-1.26-9.99,0.03-13.67,3.48l-7.29,6.81c-7.56,7.06-18.05,9.73-28.07,7.14L394.9,291.3 l3.87-14.93l44.87,11.63c4.88,1.26,9.98-0.04,13.67-3.48l7.29-6.81c7.56-7.06,18.05-9.73,28.07-7.14 c12.09,3.13,21.08,13.58,22.38,26.01c2.24,21.43-2.95,43.2-14.61,61.31l-1.36,2.11C493.43,368.76,483.86,373.81,473.81,373.81z" class="st1"/></g><g><path d="M473.08,353.27c-13.93-32.44,5.04-54.02,17.02-60.9l3.84,6.69l-1.92-3.34l1.93,3.34 c-1.17,0.68-28.43,17.04-13.78,51.18L473.08,353.27z" class="st1"/></g></g><g><path d="M301.51,135.33l15.11-58.46c1.85-7.14-0.08-14.73-5.11-20.12l-6.55-7.03c-5.03-5.39-6.95-12.98-5.11-20.12v0 c2.25-8.72,9.67-15.11,18.62-16.05l0,0c19.01-1.99,38.14,2.57,54.2,12.94l2.03,1.31c7.81,5.04,11.51,14.53,9.18,23.54l-0.78,3.01 c-2.17,8.4-9.15,14.68-17.72,15.94l-4.77,0.7c-8.57,1.26-15.55,7.54-17.72,15.94l-14.33,55.42L301.51,135.33z" class="st0"/><g><path d="M339.98,129.09l-14.94-3.86l10.4-40.24c2.95-11.42,12.4-19.92,24.06-21.64l4.77-0.7 c5.52-0.81,9.98-4.83,11.38-10.24l0.78-3.01c1.5-5.8-0.87-11.88-5.9-15.13l-2.03-1.31c-14.54-9.38-32.01-13.55-49.21-11.75 c-5.71,0.6-10.52,4.74-11.96,10.31c-1.19,4.62,0.03,9.45,3.28,12.94l6.55,7.02c6.86,7.36,9.45,17.57,6.93,27.31l-11.19,43.28 l-14.94-3.86l11.19-43.28c1.19-4.62-0.03-9.45-3.28-12.94l-6.55-7.02c-6.86-7.36-9.45-17.57-6.93-27.32 c3.04-11.77,13.2-20.53,25.28-21.79C338.36,3.7,359.39,8.72,376.87,20l2.03,1.31c10.62,6.86,15.64,19.7,12.47,31.95l-0.78,3.01 c-2.95,11.42-12.4,19.92-24.07,21.64l-4.77,0.7c-5.52,0.81-9.98,4.83-11.38,10.24L339.98,129.09z" class="st1"/></g><g><path d="M350.89,51.52c-24.83,0-37.22-20.99-37.37-21.26l6.69-3.84l-3.35,1.92l3.34-1.93 c0.65,1.12,16.33,27.32,49.06,13.23l3.05,7.09C364.36,50.16,357.22,51.52,350.89,51.52z" class="st1"/></g></g><g><path d="M184.59,353.6l-37.72,22.24c-6.22,3.67-10.15,10.27-10.39,17.5l-0.33,9.41c-0.25,7.23-4.17,13.83-10.39,17.5 l0,0c-7.6,4.48-17.17,3.76-24.02-1.79h0c-14.56-11.81-24.65-28.25-28.61-46.59l-0.5-2.32c-1.92-8.92,2.08-18.06,9.93-22.69 l2.62-1.54c7.32-4.31,16.51-3.82,23.32,1.25l3.79,2.82c6.82,5.07,16,5.56,23.32,1.25l35.07-20.67L184.59,353.6z" class="st0"/><g><path d="M115.06,430.86c-6.49,0-12.95-2.17-18.19-6.42c-15.87-12.87-26.98-30.97-31.29-50.95l-0.5-2.32 c-2.63-12.19,2.82-24.63,13.55-30.96l2.62-1.54c10.02-5.9,22.51-5.24,31.84,1.71l3.79,2.82c4.33,3.23,10.14,3.54,14.8,0.79 l35.07-20.68l7.83,13.29l-35.07,20.67c-10.01,5.9-22.51,5.24-31.84-1.71l-3.79-2.82c-4.33-3.23-10.15-3.54-14.8-0.79l-2.62,1.54 c-5,2.95-7.53,8.74-6.31,14.42l0.5,2.32c3.57,16.56,12.78,31.56,25.93,42.23c4.32,3.51,10.45,3.97,15.24,1.14 c3.98-2.34,6.44-6.5,6.6-11.12l0.33-9.41c0.34-9.91,5.64-18.84,14.18-23.87l37.72-22.24l7.83,13.29l-37.72,22.24 c-3.97,2.34-6.44,6.5-6.6,11.12l-0.33,9.42c-0.34,9.92-5.65,18.84-14.19,23.87C125.16,429.55,120.1,430.86,115.06,430.86z" class="st1"/></g><g><path d="M116.83,410.31l-7.45-2.02l3.72,1.01l-3.73-1c0.32-1.23,7.57-30.21-24.8-43.13l2.86-7.17 C126.28,373.52,116.93,409.94,116.83,410.31z" class="st1"/></g></g><g><path d="M266.33,245.71c-1.39,0-2.8-0.18-4.18-0.54c-8.85-2.29-14.18-11.36-11.89-20.22 c1.11-4.29,3.82-7.89,7.63-10.14c3.81-2.25,8.28-2.88,12.56-1.77c8.85,2.29,14.18,11.36,11.89,20.22v0 c-1.11,4.29-3.82,7.89-7.63,10.14C272.13,244.93,269.25,245.71,266.33,245.71z M266.28,217.15c-2.1,0-4.18,0.56-6.04,1.66 c-2.75,1.62-4.7,4.22-5.5,7.31c-1.65,6.39,2.19,12.92,8.57,14.58c3.09,0.8,6.3,0.35,9.05-1.27c2.75-1.62,4.7-4.22,5.5-7.31v0 c1.65-6.38-2.19-12.92-8.57-14.58C268.3,217.27,267.29,217.15,266.28,217.15z" class="st1"/></g><g><rect width="15.43" height="80.4" x="334.71" y="159.07" class="st1" transform="matrix(0.7934 -0.6087 0.6087 0.7934 -50.5534 249.581)"/></g></svg>